<?xml version="1.0" standalone="no"?>
<!DOCTYPE svg PUBLIC "-//W3C//DTD SVG 20010904//EN"
 "http://www.w3.org/TR/2001/REC-SVG-20010904/DTD/svg10.dtd">
<svg version="1.0" xmlns="http://www.w3.org/2000/svg"
 width="300.000000pt" height="60.000000pt" viewBox="0 0 300.000000 60.000000"
 preserveAspectRatio="xMidYMid meet">
<metadata>
Created by potrace 1.10, written by Peter Selinger 2001-2011
</metadata>
<g transform="translate(0.000000,60.000000) scale(0.100000,-0.100000)"
fill="#000000" stroke="none">
<path d="M350 489 c0 -107 1 -110 22 -107 20 3 21 8 19 91 l-2 87 90 0 c84 0
91 1 91 20 0 19 -7 20 -110 20 l-110 0 0 -111z"/>
<path d="M722 490 c-30 -5 -36 -12 -70 -87 -20 -45 -39 -82 -42 -82 -3 0 -23
38 -44 84 -38 82 -41 85 -73 85 l-33 0 60 -120 c57 -114 60 -123 60 -193 l0
-74 30 5 30 4 0 69 c0 65 4 77 61 190 33 67 59 122 57 123 -2 1 -18 -1 -36 -4z"/>
<path d="M2172 445 l3 -52 -63 1 c-60 1 -65 -1 -93 -32 -27 -30 -29 -38 -29
-111 0 -75 2 -81 30 -110 32 -32 65 -40 118 -30 17 4 35 3 38 -2 3 -5 16 -9
30 -9 l24 0 0 198 0 199 -31 0 -31 0 4 -52z m28 -87 c0 -20 -8 -22 -29 -9 -16
11 -8 28 14 28 8 0 15 -9 15 -19z m-42 -30 c7 -7 12 -39 12 -73 0 -71 -10 -85
-60 -85 -50 0 -60 14 -60 85 0 34 5 66 12 73 16 16 80 16 96 0z"/>
<path d="M1432 456 l-37 -34 0 -122 0 -122 37 -34 c63 -57 167 -45 203 25 14
29 14 29 -15 39 -25 9 -31 8 -45 -14 -12 -19 -24 -24 -55 -24 -57 0 -70 24
-70 132 0 75 3 91 20 108 29 29 85 27 105 -4 14 -21 20 -23 45 -14 26 9 28 12
18 34 -17 37 -68 64 -122 64 -39 0 -52 -6 -84 -34z"/>
<path d="M830 389 c-47 -19 -60 -47 -60 -132 0 -43 5 -87 10 -98 16 -29 63
-49 116 -49 39 0 51 5 81 35 35 35 35 35 31 115 -3 70 -6 83 -30 106 -30 30
-104 42 -148 23z m101 -59 c16 -9 19 -22 19 -73 0 -73 -10 -87 -60 -87 -50 0
-60 14 -60 85 0 34 5 66 12 73 15 15 63 16 89 2z"/>
<path d="M1070 295 c0 -59 5 -115 12 -130 18 -40 57 -55 137 -54 38 1 74 -2
80 -6 8 -4 11 39 11 144 l0 151 -30 0 -30 0 0 -103 c0 -116 -5 -127 -60 -127
-55 0 -60 11 -60 127 l0 103 -30 0 -30 0 0 -105z"/>
<path d="M1760 389 c-81 -31 -94 -206 -20 -259 60 -43 155 -22 187 41 15 29
17 127 3 163 -20 53 -104 80 -170 55z m104 -65 c19 -19 22 -124 4 -142 -17
-17 -84 -15 -102 4 -21 20 -21 102 0 132 18 26 74 30 98 6z"/>
<path d="M2356 385 c-48 -26 -55 -43 -56 -131 0 -77 2 -84 29 -113 26 -28 35
-31 90 -31 53 0 65 4 93 29 48 43 30 51 -83 35 -36 -4 -50 -2 -63 11 -30 31
-14 38 83 36 l93 -2 -4 61 c-3 49 -10 66 -30 87 -33 33 -109 42 -152 18z m105
-55 c10 -6 19 -20 19 -30 0 -18 -7 -20 -65 -20 -69 0 -79 8 -48 42 18 20 64
24 94 8z"/>
<path d="M2610 131 l0 -89 -74 5 c-86 7 -106 2 -100 -24 4 -16 17 -18 110 -18
l104 0 0 108 c0 100 -1 107 -20 107 -19 0 -20 -7 -20 -89z"/>
<path d="M1420 25 c0 -23 2 -25 21 -15 23 13 21 33 -4 38 -12 3 -17 -4 -17
-23z"/>
<path d="M1487 44 c-15 -15 -7 -45 11 -42 9 2 17 12 17 22 0 20 -16 31 -28 20z"/>
<path d="M1580 42 c0 -6 -9 -9 -21 -7 -14 3 -19 0 -17 -12 4 -24 36 -25 44 -1
3 11 3 22 0 25 -3 4 -6 1 -6 -5z"/>
<path d="M1610 25 c0 -33 25 -33 28 0 1 16 -3 25 -13 25 -9 0 -15 -10 -15 -25z"/>
<path d="M1670 28 c0 -16 6 -25 15 -25 10 0 15 8 13 20 -4 30 -28 34 -28 5z"/>
<path d="M1727 43 c-4 -3 -7 -15 -7 -25 0 -28 25 -22 28 7 2 24 -8 32 -21 18z"/>
<path d="M1780 26 c0 -17 5 -26 16 -26 10 0 14 7 12 22 -5 32 -28 35 -28 4z"/>
<path d="M1870 25 c0 -20 4 -26 18 -23 9 2 17 12 17 23 0 11 -8 21 -17 23 -14
3 -18 -3 -18 -23z"/>
<path d="M2110 28 c0 -21 5 -28 20 -28 15 0 20 6 19 28 0 23 -2 24 -8 7 -8
-19 -8 -19 -19 0 -11 18 -11 18 -12 -7z"/>
<path d="M2180 23 c0 -25 1 -26 16 -11 9 9 13 21 10 27 -13 20 -26 11 -26 -16z"/>
<path d="M2284 35 c-7 -18 3 -35 22 -35 8 0 14 10 14 25 0 27 -27 35 -36 10z"/>
<path d="M2370 39 c0 -5 -4 -7 -10 -4 -5 3 -10 -2 -10 -13 0 -10 7 -19 15 -19
9 0 15 10 15 24 0 13 -2 23 -5 23 -3 0 -5 -5 -5 -11z"/>
</g>
</svg>
